HIERARCHY
ROOT Hips
{
 OFFSET 0.000000 0.000000 0.000000
 CHANNELS 6 Xposition Yposition Zposition Yrotation Xrotation Zrotation
 JOINT Chest
 {
  OFFSET 0.000000 9.857222 0.000240
  CHANNELS 3 Yrotation Xrotation Zrotation
  JOINT Chest2
  {
   OFFSET 0.000000 10.876940 -0.000436
   CHANNELS 3 Yrotation Xrotation Zrotation
   JOINT Chest3
   {
    OFFSET 0.000000 9.827798 0.000000
    CHANNELS 3 Yrotation Xrotation Zrotation
    JOINT Chest4
    {
     OFFSET 0.000000 9.827798 0.000000
     CHANNELS 3 Yrotation Xrotation Zrotation
     JOINT Neck
     {
      OFFSET 0.000000 13.831992 0.000000
      CHANNELS 3 Yrotation Xrotation Zrotation
      JOINT Head
      {
       OFFSET 0.000000 9.147643 -0.001036
       CHANNELS 3 Yrotation Xrotation Zrotation
       End Site
       {
        OFFSET 0.000000 17.515799 -0.000541
       }
      }
     }
     JOINT RightCollar
     {
      OFFSET -3.001579 7.717577 0.000000
      CHANNELS 3 Yrotation Xrotation Zrotation
      JOINT RightShoulder
      {
       OFFSET -14.002642 0.000000 0.000000
       CHANNELS 3 Yrotation Xrotation Zrotation
       JOINT RightElbow
       {
        OFFSET -30.053852 0.000000 0.000000
        CHANNELS 3 Yrotation Xrotation Zrotation
        JOINT RightWrist
        {
         OFFSET -24.564923 0.000000 -0.000000
         CHANNELS 3 Yrotation Xrotation Zrotation
         End Site
         {
          OFFSET -18.334355 0.000000 0.000000
         }
        }
       }
      }
     }
     JOINT LeftCollar
     {
      OFFSET 3.001579 7.717577 0.000000
      CHANNELS 3 Yrotation Xrotation Zrotation
      JOINT LeftShoulder
      {
       OFFSET 14.002642 0.000000 0.000000
       CHANNELS 3 Yrotation Xrotation Zrotation
       JOINT LeftElbow
       {
        OFFSET 30.053852 0.000000 0.000000
        CHANNELS 3 Yrotation Xrotation Zrotation
        JOINT LeftWrist
        {
         OFFSET 24.564923 0.000000 -0.000000
         CHANNELS 3 Yrotation Xrotation Zrotation
         End Site
         {
          OFFSET 18.334355 0.000000 0.000000
         }
        }
       }
      }
     }
    }
   }
  }
 }
 JOINT RightHip
 {
  OFFSET -8.003235 -0.001175 -0.000120
  CHANNELS 3 Yrotation Xrotation Zrotation
  JOINT RightKnee
  {
   OFFSET 0.000000 -41.759727 0.000113
   CHANNELS 3 Yrotation Xrotation Zrotation
   JOINT RightAnkle
   {
    OFFSET 0.000000 -40.728748 0.000159
    CHANNELS 3 Yrotation Xrotation Zrotation
    JOINT RightToe
    {
     OFFSET 0.000000 -6.515296 14.732841
     CHANNELS 3 Yrotation Xrotation Zrotation
     End Site
     {
      OFFSET 0.000000 -1.502839 6.412115
     }
    }
   }
  }
 }
 JOINT LeftHip
 {
  OFFSET 8.003235 -0.001175 -0.000120
  CHANNELS 3 Yrotation Xrotation Zrotation
  JOINT LeftKnee
  {
   OFFSET 0.000000 -41.759727 0.000113
   CHANNELS 3 Yrotation Xrotation Zrotation
   JOINT LeftAnkle
   {
    OFFSET 0.000000 -40.728748 0.000159
    CHANNELS 3 Yrotation Xrotation Zrotation
    JOINT LeftToe
    {
     OFFSET 0.000000 -6.515296 14.732841
     CHANNELS 3 Yrotation Xrotation Zrotation
     End Site
     {
      OFFSET 0.000000 -1.502839 6.412115
     }
    }
   }
  }
 }
}
MOTION
Frames: 12
Frame Time: 0.016667
0.000000 88.822259 0.000000 0.000000 -5.826342 0.000000 0.000000 11.116423 0.000000 0.000000 -5.290081 0.000000 0.000000 0.000000 0.000000 0.000000 0.000000 0.000000 0.000000 12.665069 0.000000 0.000000 0.575450 0.000000 0.000000 0.000000 0.000000 0.000000 0.000000 0.000000 2.337306 0.000000 0.000000 -2.337306 0.000000 0.000000 0.000000 0.000000 0.000000 0.000000 0.000000 0.000000 -2.337306 0.000000 0.000000 2.337306 0.000000 0.000000 0.000000 8.578828 0.000000 0.000000 1.905768 0.000000 0.000000 -4.658254 0.000000 0.000000 0.000000 0.000000 0.000000 8.578828 0.000000 0.000000 1.905768 0.000000 0.000000 -4.658254 0.000000 0.000000 0.000000 0.000000
17.295711 90.380583 20.541668 -30.690749 -16.820358 0.344439 -0.077961 8.308344 -0.554786 -0.030292 3.692891 -0.236030 -0.030292 3.692891 -0.236030 -0.021283 2.769680 -0.176778 -8.602807 22.490414 2.261124 -16.129006 6.294526 6.371343 7.177169 5.005623 8.980843 53.556978 -3.069166 85.709194 11.238982 21.617927 6.048536 -9.376812 13.029346 -5.587556 -25.619640 11.036895 -13.646915 -30.675022 8.067691 -58.124721 -22.843581 -37.535068 -5.643434 5.817898 10.326308 6.171693 -0.536051 26.017891 -8.084435 -2.999410 -4.021838 5.804124 -1.218285 -4.971375 2.090234 -0.121685 0.127963 -0.028138 -11.229967 17.281911 -2.959144 9.804930 4.591626 -0.299431 2.982921 -4.821093 -0.475196 0.016026 0.076717 0.039599
17.306787 90.377818 20.536137 -30.681112 -16.829443 0.349499 -0.072506 8.328641 -0.553898 -0.028531 3.702373 -0.234926 -0.028531 3.702373 -0.234926 -0.019966 2.776791 -0.175960 -8.613091 22.477577 2.280753 -16.153805 6.275094 6.410792 7.181033 5.000862 8.987149 53.534300 -3.094473 85.673046 11.177407 21.687686 6.063640 -9.381104 13.027736 -5.621755 -25.633664 11.030724 -13.650218 -30.690805 8.053185 -58.121367 -22.876621 -37.593603 -5.598434 5.812966 10.327603 6.191888 -0.486369 26.016950 -8.066158 -3.012104 -4.002844 5.795514 -1.228317 -4.983409 2.085731 -0.122935 0.128429 -0.027664 -11.204148 17.285443 -2.960417 9.765240 4.586534 -0.301344 2.992483 -4.818098 -0.475163 0.015228 0.076306 0.037174
17.318964 90.377701 20.530932 -30.673080 -16.867577 0.350261 -0.060530 8.358688 -0.547303 -0.024035 3.717114 -0.232897 -0.024035 3.717114 -0.232897 -0.016601 2.787845 -0.174465 -8.622953 22.467046 2.300734 -16.177749 6.259930 6.450477 7.197995 5.017305 8.995937 53.546281 -3.117666 85.627237 11.094427 21.736615 6.076551 -9.379530 13.038206 -5.635973 -25.653012 11.024515 -13.658148 -30.733651 8.049669 -58.119289 -22.910384 -37.654373 -5.556462 5.812735 10.321174 6.213097 -0.432564 26.043923 -8.043118 -3.022048 -3.983220 5.785344 -1.252278 -4.987484 2.080809 -0.118246 0.121632 -0.024336 -11.196196 17.314019 -2.964886 9.733150 4.589768 -0.298401 2.976852 -4.814207 -0.480413 0.014068 0.071003 0.034884
17.328184 90.380240 20.526301 -30.644518 -16.936326 0.331494 -0.060833 8.406861 -0.526698 -0.019607 3.733665 -0.229612 -0.019607 3.733665 -0.229612 -0.013295 2.800257 -0.172028 -8.630807 22.459631 2.317607 -16.196992 6.249802 6.483686 7.230068 5.047518 9.006460 53.599713 -3.137575 85.580913 10.998140 21.755666 6.097695 -9.366280 13.053664 -5.627909 -25.671058 11.019530 -13.671601 -30.786494 8.045393 -58.125306 -22.938918 -37.706067 -5.518926 5.813258 10.317437 6.231140 -0.385468 26.110133 -7.988661 -3.044087 -3.969292 5.775937 -1.298415 -4.968846 2.043769 -0.066938 0.090885 -0.000148 -11.219595 17.375117 -2.969710 9.713800 4.588029 -0.298164 2.994724 -4.797521 -0.483216 0.013722 0.057124 0.034056
17.340930 90.382356 20.520819 -30.631580 -16.991354 0.327203 -0.046089 8.439989 -0.516467 -0.014040 3.749542 -0.224650 -0.014040 3.749542 -0.224650 -0.009146 2.812162 -0.168341 -8.636655 22.454394 2.331017 -16.211522 6.242918 6.509895 7.272809 5.076725 9.013249 53.672753 -3.163661 85.527014 10.883273 21.783589 6.141114 -9.330446 13.059245 -5.577978 -25.687112 11.016669 -13.687975 -30.830913 8.047477 -58.117390 -22.969777 -37.734017 -5.503284 5.818988 10.312791 6.237822 -0.335035 26.155145 -7.966067 -3.078352 -3.950223 5.773209 -1.286971 -4.970049 2.038304 -0.067641 0.082933 0.000730 -11.232361 17.421111 -2.981556 9.712517 4.586958 -0.295065 2.997943 -4.790923 -0.489724 0.014435 0.053061 0.034141
17.351948 90.383191 20.516173 -30.617722 -17.028329 0.320848 -0.035494 8.469802 -0.506311 -0.008916 3.761998 -0.218397 -0.008916 3.761998 -0.218397 -0.005338 2.821502 -0.163684 -8.638704 22.446405 2.340684 -16.218455 6.229911 6.528773 7.335361 5.089527 9.013947 53.699411 -3.224111 85.442079 10.724448 21.897788 6.231563 -9.265451 13.071050 -5.473547 -25.689102 10.994193 -13.700342 -30.867498 8.061436 -58.108832 -22.997194 -37.746594 -5.507567 5.822625 10.312028 6.234801 -0.296013 26.195442 -7.946178 -3.126179 -3.952956 5.772708 -1.281168 -4.963331 2.037640 -0.070776 0.077555 -0.001172 -11.241389 17.451830 -2.986807 9.717335 4.584495 -0.293715 2.979180 -4.787398 -0.492932 0.015641 0.051601 0.034087
17.363377 90.381186 20.523838 -30.591143 -17.043111 0.344827 -0.043788 8.510979 -0.536656 -0.002518 3.770675 -0.211882 -0.002518 3.770675 -0.211882 -0.000579 2.828007 -0.158839 -8.640131 22.430662 2.353243 -16.225698 6.202962 6.553668 7.406689 5.062535 9.006352 53.658713 -3.348114 85.305543 10.485118 22.141465 6.400617 -9.163536 13.091416 -5.332328 -25.683640 10.938422 -13.694601 -30.880373 8.067496 -58.114461 -23.022035 -37.727875 -5.517022 5.825618 10.306028 6.228681 -0.409018 26.239153 -8.038773 -3.092028 -4.003072 5.777343 -1.193913 -4.975132 2.081792 -0.140383 0.098856 -0.034035 -11.266209 17.456618 -3.026662 9.716439 4.586238 -0.290045 2.954051 -4.796665 -0.493046 0.018996 0.055572 0.034361
17.357624 90.377912 20.552188 -30.513443 -17.084999 0.341836 -0.101957 8.602636 -0.564342 0.005749 3.774822 -0.207592 0.005749 3.774822 -0.207592 0.005594 2.831115 -0.155673 -8.642333 22.411999 2.370860 -16.235935 6.171501 6.588211 7.489637 5.023147 9.005197 53.584922 -3.548614 85.054141 10.154687 22.510086 6.714265 -9.016954 13.072746 -5.196366 -25.678010 10.878841 -13.676356 -30.873541 8.051234 -58.143524 -23.052447 -37.699206 -5.509807 5.825861 10.290558 6.234933 -0.860559 26.345445 -8.220155 -2.867237 -4.118314 5.775718 -1.159043 -4.982020 2.088878 -0.133406 0.117373 -0.033176 -11.340488 17.500636 -3.056609 9.696524 4.595561 -0.290423 2.930771 -4.821055 -0.494767 0.020239 0.057351 0.033979
17.329105 90.374624 20.582907 -30.424259 -17.128953 0.314435 -0.167525 8.702339 -0.576536 0.015257 3.774904 -0.205623 0.015257 3.774904 -0.205623 0.012710 2.831173 -0.154256 -8.651603 22.396498 2.389455 -16.258903 6.146930 6.625915 7.585419 5.006429 9.016584 53.621559 -3.815796 84.714327 9.694833 22.892870 7.080676 -8.828704 12.992858 -5.025955 -25.683465 10.851490 -13.661025 -30.847752 8.027662 -58.154973 -23.106402 -37.704382 -5.477892 5.825294 10.283197 6.234151 -1.253645 26.459546 -8.291784 -2.737239 -4.230075 5.716561 -1.121871 -5.003770 2.080354 -0.081828 0.152125 -0.012846 -11.426349 17.555476 -3.060125 9.663650 4.616709 -0.299473 2.992653 -4.870817 -0.503000 0.018923 0.070083 0.032651
17.279480 90.374973 20.627296 -30.261449 -17.236446 0.269972 -0.302836 8.870388 -0.595259 0.025149 3.770332 -0.202353 0.025149 3.770332 -0.202353 0.020105 2.827741 -0.151865 -8.671523 22.384945 2.404860 -16.299887 6.130525 6.660117 7.704903 5.023411 9.045504 53.805468 -4.188777 84.363777 8.994902 23.288156 7.334875 -8.594069 12.928843 -4.717728 -25.701814 10.852734 -13.664115 -30.832467 7.991153 -58.147200 -23.157600 -37.709623 -5.451766 5.822708 10.266099 6.241688 -1.833111 26.646298 -8.387067 -2.556165 -4.354886 5.631349 -1.164682 -5.016632 2.040686 0.050002 0.174859 0.045765 -11.604992 17.674021 -3.072955 9.662787 4.653858 -0.305266 2.990443 -4.934276 -0.519244 0.011251 0.080585 0.026898
17.218847 90.378779 20.689647 -30.035570 -17.426409 0.247232 -0.501642 9.099701 -0.657239 0.034218 3.770530 -0.197056 0.034218 3.770530 -0.197056 0.026872 2.827887 -0.147950 -8.699897 22.377002 2.416417 -16.354775 6.121288 6.689118 7.858040 5.046230 9.091932 54.072713 -4.633317 84.023066 8.076583 23.820366 7.417564 -8.320287 12.947841 -4.208911 -25.735061 10.875401 -13.688260 -30.862649 7.969477 -58.130194 -23.215488 -37.756254 -5.408599 5.817497 10.254323 6.248349 -2.724564 26.909553 -8.667168 -2.239457 -4.488722 5.594693 -1.193749 -5.000607 1.989706 0.176837 0.159745 0.105819 -11.891504 17.860936 -3.161663 9.700077 4.702816 -0.311102 2.999222 -4.979275 -0.528906 0.005148 0.062522 0.020907
